<svg width="64" height="64" viewBox="0 0 64 64" fill="none" xmlns="http://www.w3.org/2000/svg">
<path d="M57.9467 32L43.8933 18.7467C37.2267 12.4267 26.7733 12.4267 20.1067 18.7467L6.05334 32L20.1067 45.2533C23.44 48.4 27.7067 50 32 50C36.2933 50 40.56 48.4 43.8933 45.2533L57.9467 32ZM32 45.3333C24.64 45.3333 18.6667 39.36 18.6667 32C18.6667 24.64 24.64 18.6667 32 18.6667C39.36 18.6667 45.3333 24.64 45.3333 32C45.3333 39.36 39.36 45.3333 32 45.3333ZM32 21.3333C26.1067 21.3333 21.3333 26.1067 21.3333 32C21.3333 37.8933 26.1067 42.6667 32 42.6667C37.8933 42.6667 42.6667 37.8933 42.6667 32C42.6667 26.1067 37.8933 21.3333 32 21.3333ZM36.9333 35.0667C37.4667 35.5733 37.4667 36.4267 36.9333 36.9333C36.6933 37.2 36.3467 37.3333 36 37.3333C35.6533 37.3333 35.3067 37.2 35.0667 36.9333L32 33.8667L28.9333 36.9333C28.6933 37.2 28.3467 37.3333 28 37.3333C27.6533 37.3333 27.3067 37.2 27.0667 36.9333C26.5333 36.4267 26.5333 35.5733 27.0667 35.0667L30.1333 32L27.0667 28.9333C26.5333 28.4267 26.5333 27.5733 27.0667 27.0667C27.5733 26.5333 28.4267 26.5333 28.9333 27.0667L32 30.1333L35.0667 27.0667C35.5733 26.5333 36.4267 26.5333 36.9333 27.0667C37.4667 27.5733 37.4667 28.4267 36.9333 28.9333L33.8667 32L36.9333 35.0667ZM54.6667 42.6667C53.92 42.6667 53.3333 43.2533 53.3333 44V53.3333H44C43.2533 53.3333 42.6667 53.92 42.6667 54.6667C42.6667 55.4133 43.2533 56 44 56H56V44C56 43.2533 55.4133 42.6667 54.6667 42.6667ZM44 10.6667H53.3333V20C53.3333 20.7467 53.92 21.3333 54.6667 21.3333C55.4133 21.3333 56 20.7467 56 20V8H44C43.2533 8 42.6667 8.58667 42.6667 9.33333C42.6667 10.08 43.2533 10.6667 44 10.6667ZM9.33334 21.3333C10.08 21.3333 10.6667 20.7467 10.6667 20V10.6667H20C20.7467 10.6667 21.3333 10.08 21.3333 9.33333C21.3333 8.58667 20.7467 8 20 8H8.00001V20C8.00001 20.7467 8.58668 21.3333 9.33334 21.3333ZM20 53.3333H10.6667V44C10.6667 43.2533 10.08 42.6667 9.33334 42.6667C8.58668 42.6667 8.00001 43.2533 8.00001 44V56H20C20.7467 56 21.3333 55.4133 21.3333 54.6667C21.3333 53.92 20.7467 53.3333 20 53.3333Z" fill="#232323"/>
</svg>
