<svg width="64" height="64" viewBox="0 0 64 64" fill="none" xmlns="http://www.w3.org/2000/svg">
<path d="M54.7733 38.48L26.2667 10.24C25.7333 9.73332 24.9067 9.73332 24.3733 10.24C23.84 10.7467 23.8667 11.6 24.3733 12.1333L31.04 18.7467C30.9067 18.6933 30.7467 18.6667 30.6133 18.6667H24.5867C23.36 18.6667 22.7467 20.16 23.6 21.04L25.9733 23.4133C23.68 27.1733 22.1867 31.3867 21.6 35.7867H18.32C17.0933 35.7867 16.48 37.28 17.3333 38.16L21.6 42.4266C21.6 42.4266 21.84 42.6133 21.9733 42.6666H9.33333C8.58667 42.6666 8 43.2533 8 44C8 44.7466 8.58667 45.3333 9.33333 45.3333H51.9733C53.6267 45.3333 55.04 44.3733 55.68 42.8533C56.32 41.3333 55.9733 39.6533 54.8 38.48H54.7733ZM53.2 41.84C53.12 42.0266 52.8 42.6666 51.9733 42.6666H23.2533C23.2533 42.6666 23.52 42.5333 23.6267 42.4266L27.8933 38.16C28.7733 37.28 28.16 35.7867 26.9067 35.7867H24.3467C24.88 32.1067 26.1067 28.56 27.9733 25.36L29.68 27.0667C30.56 27.9467 32.0533 27.3333 32.0533 26.08V20.0533C32.0533 19.8933 32 19.76 31.9733 19.6L52.9333 40.3733C53.52 40.96 53.3067 41.6267 53.2267 41.8133L53.2 41.84Z" fill="#232323"/>
</svg>
