<svg width="2008" height="1285" viewBox="0 0 2008 1285" fill="none" xmlns="http://www.w3.org/2000/svg">
<g filter="url(#filter0_i_1292_2)">
<path d="M777.16 132.122L877.66 166.122L878.011 166.241L878 166.611L874.508 281.843L946.577 333.037L1056.83 294.124L1057.19 293.998L1057.41 294.308L1117.91 380.308L1118.12 380.61L1117.9 380.902L1071.4 440.902L1071.23 441.11L1070.97 441.095L871.971 429.595L871.806 429.585L871.679 429.479C836.448 399.996 811.727 384.142 795.827 375.662C787.877 371.422 782.134 369.026 778.387 367.691C776.513 367.024 775.138 366.623 774.236 366.389C773.785 366.271 773.452 366.196 773.234 366.15C773.126 366.128 773.045 366.112 772.993 366.103C772.967 366.098 772.948 366.094 772.937 366.092C772.931 366.091 772.926 366.09 772.924 366.09H772.922L772.862 366.08L772.806 366.057L773 365.596C772.806 366.057 772.805 366.056 772.805 366.056C772.804 366.055 772.802 366.055 772.801 366.055C772.797 366.053 772.792 366.051 772.785 366.048C772.771 366.042 772.749 366.033 772.721 366.021C772.663 365.998 772.576 365.962 772.461 365.915C772.23 365.822 771.886 365.683 771.43 365.506C770.517 365.151 769.161 364.638 767.39 364.009C763.847 362.751 758.642 361.028 752.006 359.17C738.732 355.454 719.731 351.199 696.828 349.049C651.023 344.749 589.628 348.868 527.237 382.536C464.839 416.208 428.401 462.38 407.562 500.133C397.143 519.009 390.624 535.78 386.71 547.829C384.753 553.853 383.448 558.697 382.632 562.032C382.224 563.699 381.939 564.99 381.756 565.862C381.664 566.298 381.598 566.63 381.555 566.852C381.533 566.962 381.517 567.046 381.507 567.102C381.502 567.129 381.499 567.15 381.496 567.164C381.495 567.171 381.494 567.175 381.493 567.179C381.493 567.18 381.492 567.182 381.492 567.183C381.492 567.183 381.492 567.184 381 567.096L381.492 567.184L381.483 567.231L381.466 567.277L381 567.096L381.466 567.278L381.465 567.28C381.464 567.283 381.462 567.287 381.46 567.292C381.456 567.302 381.45 567.318 381.441 567.34C381.425 567.383 381.401 567.448 381.369 567.534C381.305 567.708 381.21 567.968 381.089 568.314C380.846 569.007 380.497 570.042 380.075 571.407C379.231 574.137 378.095 578.187 376.926 583.454C374.588 593.989 372.124 609.394 371.625 628.858C370.627 667.784 377.487 722.951 408.946 787.87C468.788 895.31 567.631 939.587 684.971 939.595C743.618 933.851 789.914 912.888 821.55 893.357C837.369 883.591 849.52 874.185 857.715 867.223C861.812 863.742 864.92 860.871 867.002 858.873C868.043 857.874 868.828 857.092 869.352 856.562C869.613 856.296 869.811 856.093 869.941 855.957C870.007 855.889 870.056 855.838 870.088 855.804C870.104 855.787 870.116 855.774 870.124 855.766C870.128 855.762 870.131 855.759 870.133 855.757C870.134 855.756 870.134 855.754 870.135 855.754C870.135 855.754 870.145 855.763 870.5 856.096L870.136 855.754L870.271 855.608L870.47 855.597L1070.97 843.597L1071.24 843.581L1071.4 843.795L1117.4 904.795L1117.62 905.091L1117.4 905.391L1055.4 990.391L1055.18 990.693L1054.83 990.565L947.581 951.656L874.506 1005.84L877.5 1119.58L877.51 1119.95L877.159 1120.07L777.159 1153.57L776.799 1153.69L776.586 1153.38L712.234 1058.1H620.269L557.417 1153.37L557.21 1153.69L556.851 1153.57L456.351 1122.07L455.987 1121.96L456 1121.58L459.99 1005.84L385.921 952.155L278.671 991.065L278.32 991.192L278.099 990.894L215.099 905.894L214.874 905.591L215.104 905.291L285.942 813L258.605 729L148.359 696.575L148 696.47V589.722L148.359 589.616L258.605 557.19L286.442 471.193L215.604 379.902L215.373 379.603L215.598 379.299L278.098 294.799L278.318 294.5L278.668 294.625L386.422 333.037L459.994 280.841L457.5 165.106L457.492 164.733L457.847 164.62L557.347 132.62L557.703 132.505L557.913 132.814L622.765 228.096H711.235L776.587 132.313L776.801 132L777.16 132.122ZM677.978 459.5C697.288 458.124 772.758 461.015 875.518 466.248C978.325 471.483 1108.5 479.067 1237.22 487.085C1365.94 495.103 1493.21 503.555 1590.2 510.528C1638.7 514.015 1679.63 517.133 1709.39 519.641C1724.27 520.895 1736.36 521.996 1745.2 522.916C1754.03 523.833 1759.68 524.574 1761.63 525.113C1776.92 529.324 1801.75 538.249 1822.76 556.216C1843.8 574.197 1861 601.229 1861 641.596C1861 681.953 1844.43 710.06 1823.71 728.832C1803.01 747.592 1778.17 757.025 1761.59 760.087C1753.31 761.616 1707.49 766.438 1636.77 772.807C1566.03 779.177 1470.34 787.1 1362.3 794.832C1146.22 810.296 880.705 825 666.5 825C659.919 825 645.702 822.449 628.204 816.395C610.692 810.335 589.85 800.752 570.022 786.657C530.357 758.459 494.742 712.187 498.001 639.978C501.259 567.807 535.1 522.67 573.713 495.591C612.289 468.537 655.625 459.506 677.978 459.5ZM679 523.596C613.554 523.596 560.5 576.65 560.5 642.096C560.5 707.541 613.554 760.596 679 760.596C744.446 760.596 797.5 707.541 797.5 642.096C797.5 576.65 744.446 523.596 679 523.596Z" fill="url(#paint0_linear_1292_2)"/>
</g>
<g filter="url(#filter1_i_1292_2)">
<path d="M682 661L628 781L749 629.5H668L731.5 497L608 665.5L682 661Z" fill="#193447"/>
</g>
<path d="M923.031 576.969V620.938H919.562C918.438 612.5 916.406 605.781 913.469 600.781C910.594 595.781 906.469 591.812 901.094 588.875C895.719 585.938 890.156 584.469 884.406 584.469C877.906 584.469 872.531 586.469 868.281 590.469C864.031 594.406 861.906 598.906 861.906 603.969C861.906 607.844 863.25 611.375 865.938 614.562C869.812 619.25 879.031 625.5 893.594 633.312C905.469 639.688 913.562 644.594 917.875 648.031C922.25 651.406 925.594 655.406 927.906 660.031C930.281 664.656 931.469 669.5 931.469 674.562C931.469 684.188 927.719 692.5 920.219 699.5C912.781 706.438 903.188 709.906 891.438 709.906C887.75 709.906 884.281 709.625 881.031 709.062C879.094 708.75 875.062 707.625 868.938 705.688C862.875 703.688 859.031 702.688 857.406 702.688C855.844 702.688 854.594 703.156 853.656 704.094C852.781 705.031 852.125 706.969 851.688 709.906H848.219V666.312H851.688C853.312 675.438 855.5 682.281 858.25 686.844C861 691.344 865.188 695.094 870.812 698.094C876.5 701.094 882.719 702.594 889.469 702.594C897.281 702.594 903.438 700.531 907.938 696.406C912.5 692.281 914.781 687.406 914.781 681.781C914.781 678.656 913.906 675.5 912.156 672.312C910.469 669.125 907.812 666.156 904.188 663.406C901.75 661.531 895.094 657.562 884.219 651.5C873.344 645.375 865.594 640.5 860.969 636.875C856.406 633.25 852.938 629.25 850.562 624.875C848.188 620.5 847 615.688 847 610.438C847 601.312 850.5 593.469 857.5 586.906C864.5 580.281 873.406 576.969 884.219 576.969C890.969 576.969 898.125 578.625 905.688 581.938C909.188 583.5 911.656 584.281 913.094 584.281C914.719 584.281 916.031 583.812 917.031 582.875C918.094 581.875 918.938 579.906 919.562 576.969H923.031ZM1129 586.812V636.781H1152.15C1157.46 636.781 1161.34 635.625 1163.78 633.312C1166.28 630.938 1167.93 626.281 1168.75 619.344H1172.21V662.375H1168.75C1168.68 657.438 1168.03 653.812 1166.78 651.5C1165.59 649.188 1163.9 647.469 1161.71 646.344C1159.59 645.156 1156.4 644.562 1152.15 644.562H1129V684.5C1129 690.938 1129.4 695.188 1130.21 697.25C1130.84 698.812 1132.15 700.156 1134.15 701.281C1136.9 702.781 1139.78 703.531 1142.78 703.531H1147.37V707H1092.81V703.531H1097.31C1102.56 703.531 1106.37 702 1108.75 698.938C1110.25 696.938 1111 692.125 1111 684.5V602.375C1111 595.938 1110.59 591.688 1109.78 589.625C1109.15 588.062 1107.87 586.719 1105.93 585.594C1103.25 584.094 1100.37 583.344 1097.31 583.344H1092.81V579.875H1187.4L1188.62 607.812H1185.34C1183.71 601.875 1181.81 597.531 1179.62 594.781C1177.5 591.969 1174.84 589.938 1171.65 588.688C1168.53 587.438 1163.65 586.812 1157.03 586.812H1129ZM1455.52 579.875L1456.93 609.688H1453.37C1452.68 604.438 1451.74 600.688 1450.55 598.438C1448.62 594.812 1446.02 592.156 1442.77 590.469C1439.59 588.719 1435.37 587.844 1430.12 587.844H1412.21V684.969C1412.21 692.781 1413.05 697.656 1414.74 699.594C1417.12 702.219 1420.77 703.531 1425.71 703.531H1430.12V707H1376.21V703.531H1380.71C1386.09 703.531 1389.9 701.906 1392.15 698.656C1393.52 696.656 1394.21 692.094 1394.21 684.969V587.844H1378.93C1372.99 587.844 1368.77 588.281 1366.27 589.156C1363.02 590.344 1360.24 592.625 1357.93 596C1355.62 599.375 1354.24 603.938 1353.8 609.688H1350.24L1351.74 579.875H1455.52ZM1682.11 664.438H1632.9L1624.27 684.5C1622.15 689.438 1621.08 693.125 1621.08 695.562C1621.08 697.5 1621.99 699.219 1623.8 700.719C1625.68 702.156 1629.68 703.094 1635.8 703.531V707H1595.77V703.531C1601.08 702.594 1604.52 701.375 1606.08 699.875C1609.27 696.875 1612.8 690.781 1616.68 681.594L1661.4 576.969H1664.68L1708.93 682.719C1712.49 691.219 1715.71 696.75 1718.58 699.312C1721.52 701.812 1725.58 703.219 1730.77 703.531V707H1680.61V703.531C1685.68 703.281 1689.08 702.438 1690.83 701C1692.65 699.562 1693.55 697.812 1693.55 695.75C1693.55 693 1692.3 688.656 1689.8 682.719L1682.11 664.438ZM1679.49 657.5L1657.93 606.125L1635.8 657.5H1679.49Z" fill="url(#paint1_linear_1292_2)"/>
<defs>
<filter id="filter0_i_1292_2" x="148" y="132" width="1713" height="1026.69" filterUnits="userSpaceOnUse" color-interpolation-filters="sRGB">
<feFlood flood-opacity="0" result="BackgroundImageFix"/>
<feBlend mode="normal" in="SourceGraphic" in2="BackgroundImageFix" result="shape"/>
<feColorMatrix in="SourceAlpha" type="matrix" values="0 0 0 0 0 0 0 0 0 0 0 0 0 0 0 0 0 0 127 0" result="hardAlpha"/>
<feMorphology radius="1" operator="erode" in="SourceAlpha" result="effect1_innerShadow_1292_2"/>
<feOffset dy="16"/>
<feGaussianBlur stdDeviation="2"/>
<feComposite in2="hardAlpha" operator="arithmetic" k2="-1" k3="1"/>
<feColorMatrix type="matrix" values="0 0 0 0 0 0 0 0 0 0 0 0 0 0 0 0 0 0 0.25 0"/>
<feBlend mode="normal" in2="shape" result="effect1_innerShadow_1292_2"/>
</filter>
<filter id="filter1_i_1292_2" x="597" y="497" width="152" height="293" filterUnits="userSpaceOnUse" color-interpolation-filters="sRGB">
<feFlood flood-opacity="0" result="BackgroundImageFix"/>
<feBlend mode="normal" in="SourceGraphic" in2="BackgroundImageFix" result="shape"/>
<feColorMatrix in="SourceAlpha" type="matrix" values="0 0 0 0 0 0 0 0 0 0 0 0 0 0 0 0 0 0 127 0" result="hardAlpha"/>
<feOffset dx="-11" dy="9"/>
<feGaussianBlur stdDeviation="8"/>
<feComposite in2="hardAlpha" operator="arithmetic" k2="-1" k3="1"/>
<feColorMatrix type="matrix" values="0 0 0 0 0 0 0 0 0 0 0 0 0 0 0 0 0 0 0.53 0"/>
<feBlend mode="normal" in2="shape" result="effect1_innerShadow_1292_2"/>
</filter>
<linearGradient id="paint0_linear_1292_2" x1="1004.5" y1="132.596" x2="1004.5" y2="1153.1" gradientUnits="userSpaceOnUse">
<stop stop-color="#46677B"/>
<stop offset="1" stop-color="#1A384C"/>
</linearGradient>
<linearGradient id="paint1_linear_1292_2" x1="1181" y1="532" x2="1181" y2="707" gradientUnits="userSpaceOnUse">
<stop offset="0.321422" stop-color="white"/>
<stop offset="1" stop-color="#A2A4A7"/>
</linearGradient>
</defs>
</svg>
