<svg width="64" height="64" viewBox="0 0 64 64" fill="none" xmlns="http://www.w3.org/2000/svg">
<path d="M32 8C18.7733 8 8 18.7733 8 32C8 45.2267 18.7733 56 32 56C45.2267 56 56 45.2267 56 32C56 18.7733 45.2267 8 32 8ZM39.9733 40.0533C39.9733 42.4 37.1733 43.5733 35.52 41.92L27.44 33.84C26.9333 33.3333 26.6667 32.6667 26.6667 32V41.3333C26.6667 42.08 26.08 42.6667 25.3333 42.6667C24.5867 42.6667 24 42.08 24 41.3333V22.6667C24 21.92 24.5867 21.3333 25.3333 21.3333C26.08 21.3333 26.6667 21.92 26.6667 22.6667V32C26.6667 31.3333 26.9333 30.6667 27.44 30.16L35.52 22.08C37.1733 20.4267 39.9733 21.6 39.9733 23.9467V40.0533Z" fill="#232323"/>
</svg>
