<svg width="64" height="64" viewBox="0 0 64 64" fill="none" xmlns="http://www.w3.org/2000/svg">
<path d="M55.0933 42.6667L36.6133 10.6667C35.6533 8.98667 33.92 8 32 8C30.08 8 28.3466 8.98667 27.3866 10.6667L8.90665 42.6667C7.94665 44.3467 7.94665 46.32 8.90665 48C9.86665 49.68 11.6 50.6667 13.52 50.6667H50.48C52.4 50.6667 54.1333 49.68 55.0933 48C56.0533 46.32 56.0533 44.3467 55.0933 42.6667ZM32 45.3333C30.5333 45.3333 29.3333 44.1333 29.3333 42.6667C29.3333 41.2 30.5333 40 32 40C33.4666 40 34.6666 41.2 34.6666 42.6667C34.6666 44.1333 33.4666 45.3333 32 45.3333ZM34.3466 25.2267L33.04 36.4C32.9066 37.6533 31.0933 37.6533 30.96 36.4L29.6533 25.2267C29.44 23.3867 29.3333 21.5467 29.3333 19.7067C29.3333 19.1467 29.8133 18.6667 30.3733 18.6667H33.6266C34.1866 18.6667 34.6666 19.1467 34.6666 19.7067C34.6666 21.5467 34.56 23.3867 34.3466 25.2267Z" fill="#232323"/>
</svg>
