<svg width="64" height="64" viewBox="0 0 64 64" fill="none" xmlns="http://www.w3.org/2000/svg">
<path d="M33.8933 32L44.96 20.9333C45.4934 20.4 45.4934 19.5733 44.96 19.04C44.4267 18.5067 43.6 18.5067 43.0667 19.04L32 30.1067L20.9333 19.04C20.4 18.5067 19.5733 18.5067 19.04 19.04C18.5067 19.5733 18.5067 20.4 19.04 20.9333L30.1067 32L19.04 43.0667C18.5067 43.6 18.5067 44.4267 19.04 44.96C19.3067 45.2267 19.6533 45.36 19.9733 45.36C20.2933 45.36 20.6667 45.2267 20.9067 44.96L31.9733 33.8933L43.04 44.96C43.3067 45.2267 43.6533 45.36 43.9733 45.36C44.2933 45.36 44.6667 45.2267 44.9067 44.96C45.44 44.4267 45.44 43.6 44.9067 43.0667L33.84 32H33.8933Z" fill="#232323"/>
</svg>
