<svg width="64" height="64" viewBox="0 0 64 64" fill="none" xmlns="http://www.w3.org/2000/svg">
<path d="M55.6 8.4C55.0933 7.86667 54.24 7.86667 53.7333 8.4L44.2667 17.8667L42.3733 15.9733C39.8667 13.4667 35.4667 13.4667 32.9333 15.9733L26.3467 22.56L25.3867 21.6267C24.88 21.12 24.0267 21.12 23.52 21.6267C22.9867 22.16 22.9867 22.9867 23.52 23.52C22.9867 22.9867 22.16 22.9867 21.6267 23.52C21.0933 24.0533 21.12 24.88 21.6267 25.3867L22.56 26.3467L15.9733 32.9333C14.72 34.2133 14.0267 35.8667 14.0267 37.6533C14.0267 39.44 14.72 41.12 15.9733 42.3733L17.8667 44.2667L8.4 53.7333C7.86667 54.24 7.86667 55.0933 8.4 55.6C8.64 55.8667 8.98667 56 9.33333 56C9.68 56 10.0267 55.8667 10.2667 55.6L19.7333 46.1333L21.6267 48.0267C22.9333 49.3333 24.64 49.9733 26.3467 49.9733C28.0533 49.9733 29.76 49.3333 31.0667 48.0267L37.6533 41.44L38.5867 42.3733C39.12 42.88 39.9733 42.88 40.48 42.3733C41.0133 41.84 41.0133 41.0133 40.48 40.48C40.7467 40.7467 41.0933 40.88 41.44 40.88C41.76 40.88 42.1067 40.7467 42.3733 40.48C42.88 39.9733 42.88 39.12 42.3733 38.5867L41.44 37.6533L48.0267 31.0667C50.6133 28.4533 50.6133 24.24 48.0267 21.6267L46.1333 19.7333L55.6 10.2667C56.1333 9.76 56.1333 8.90667 55.6 8.4ZM35.76 35.76C35.52 36.0267 35.1733 36.16 34.8267 36.16C34.48 36.16 34.1333 36.0267 33.8933 35.76L28.24 30.1067C27.7067 29.6 27.7067 28.7467 28.24 28.24C28.7467 27.7067 29.6 27.7067 30.1067 28.24L35.76 33.8933C36.2933 34.4 36.2933 35.2533 35.76 35.76Z" fill="#232323"/>
</svg>
