<svg width="64" height="64" viewBox="0 0 64 64" fill="none" xmlns="http://www.w3.org/2000/svg">
<path d="M32 8C18.7733 8 8 18.7733 8 32C8 45.2267 18.7733 56 32 56C45.2267 56 56 45.2267 56 32C56 18.7733 45.2267 8 32 8ZM29.3067 40.0533C29.3067 42.4 26.5067 43.5733 24.8533 41.92L16.7733 33.84C15.76 32.8267 15.76 31.1733 16.7733 30.16L24.8533 22.08C26.5067 20.4267 29.3067 21.6 29.3067 23.9467V40.0533ZM45.3067 40.0533C45.3067 42.4 42.5067 43.5733 40.8533 41.92L32.7733 33.84C31.76 32.8267 31.76 31.1733 32.7733 30.16L40.8533 22.08C42.5067 20.4267 45.3067 21.6 45.3067 23.9467V40.0533Z" fill="#232323"/>
</svg>
