<svg width="64" height="64" viewBox="0 0 64 64" fill="none" xmlns="http://www.w3.org/2000/svg">
<path d="M41.3333 30.6666H45.2533C44.64 24.3733 39.6266 19.36 33.3333 18.7466V22.6666C33.3333 23.4133 32.7466 24 32 24C31.2533 24 30.6666 23.4133 30.6666 22.6666V18.7466C24.3733 19.36 19.36 24.3733 18.7466 30.6666H22.6666C23.4133 30.6666 24 31.2533 24 32C24 32.7466 23.4133 33.3333 22.6666 33.3333H18.7466C19.36 39.6266 24.3733 44.64 30.6666 45.2533V41.3333C30.6666 40.5866 31.2533 40 32 40C32.7466 40 33.3333 40.5866 33.3333 41.3333V45.2533C39.6266 44.64 44.64 39.6266 45.2533 33.3333H41.3333C40.5866 33.3333 40 32.7466 40 32C40 31.2533 40.5866 30.6666 41.3333 30.6666ZM32 5.33331C17.3066 5.33331 5.33331 17.3066 5.33331 32C5.33331 46.6933 17.3066 58.6666 32 58.6666C46.6933 58.6666 58.6666 46.6933 58.6666 32C58.6666 17.3066 46.6933 5.33331 32 5.33331ZM52 33.3333H47.9466C47.3066 41.0933 41.0933 47.3066 33.3333 47.9466V52C33.3333 52.7466 32.7466 53.3333 32 53.3333C31.2533 53.3333 30.6666 52.7466 30.6666 52V47.9466C22.9066 47.3066 16.6933 41.0933 16.0533 33.3333H12C11.2533 33.3333 10.6666 32.7466 10.6666 32C10.6666 31.2533 11.2533 30.6666 12 30.6666H16.0533C16.6933 22.9066 22.9066 16.6933 30.6666 16.0533V12C30.6666 11.2533 31.2533 10.6666 32 10.6666C32.7466 10.6666 33.3333 11.2533 33.3333 12V16.0533C41.0933 16.6933 47.3066 22.9066 47.9466 30.6666H52C52.7466 30.6666 53.3333 31.2533 53.3333 32C53.3333 32.7466 52.7466 33.3333 52 33.3333Z" fill="#232323"/>
</svg>
