<svg width="64" height="64" viewBox="0 0 64 64" fill="none" xmlns="http://www.w3.org/2000/svg">
<path d="M27.0667 39.6C27.3333 39.8666 27.68 40 28 40C28.32 40 28.6933 39.8666 28.9333 39.6L36.5333 32L28.9333 24.4C28.4 23.8666 27.5733 23.8666 27.04 24.4C26.5067 24.9333 26.5067 25.76 27.04 26.2933L32.7733 32.0266L27.04 37.76C26.5067 38.2933 26.5067 39.12 27.04 39.6533L27.0667 39.6ZM14.6667 25.0666L19.6267 17.6266C19.9733 17.12 20.2667 16.56 20.5067 16H46C50.0533 16 53.3333 19.28 53.3333 23.3333C53.3333 27.3866 50.0533 30.6666 46 30.6666H41.3333C40.5867 30.6666 40 31.2533 40 32C40 32.7466 40.5867 33.3333 41.3333 33.3333H46C51.52 33.3333 56 28.8533 56 23.3333C56 17.8133 51.52 13.3333 46 13.3333H21.2533C21.3067 12.88 21.3333 12.4533 21.3333 12C21.3333 8.31998 18.3467 5.33331 14.6667 5.33331C10.9867 5.33331 8 8.31998 8 12C8 14 8.58667 15.9466 9.70667 17.6266L14.6667 25.0666ZM14.6667 10.6666C15.4133 10.6666 16 11.2533 16 12C16 12.7466 15.4133 13.3333 14.6667 13.3333C13.92 13.3333 13.3333 12.7466 13.3333 12C13.3333 11.2533 13.92 10.6666 14.6667 10.6666ZM50 41.44L43.44 48H18C13.9467 48 10.6667 44.72 10.6667 40.6666C10.6667 36.6133 13.9467 33.3333 18 33.3333H25.3333C26.0533 33.3333 26.6667 32.7466 26.6667 32C26.6667 31.2533 26.0533 30.6666 25.3333 30.6666H18C12.48 30.6666 8 35.1466 8 40.6666C8 46.1866 12.48 50.6666 18 50.6666H43.44L50 57.2266L57.8933 49.3333L50 41.44Z" fill="#232323"/>
</svg>
