<svg width="64" height="64" viewBox="0 0 64 64" fill="none" xmlns="http://www.w3.org/2000/svg">
<path d="M32.9333 44.2667L19.7333 31.0667L17.8667 29.1733C17.3333 28.64 16.5067 28.64 15.9733 29.1733C15.44 29.68 15.44 30.5333 15.9733 31.0667L16.9067 32L10.32 38.5867C7.70667 41.2 7.70667 45.44 10.32 48.0267L12.2133 49.92L8.4 53.7333C7.86667 54.2667 7.86667 55.0933 8.4 55.6267C8.66667 55.8933 9.01333 56.0267 9.33333 56.0267C9.65333 56.0267 10.0267 55.8933 10.2667 55.6267L14.08 51.8133L15.9733 53.7067C17.2267 54.96 18.9067 55.6533 20.6933 55.6533C22.48 55.6533 24.1333 54.96 25.3867 53.7067L32 47.12L32.9333 48.0533C33.2 48.32 33.5467 48.4533 33.8933 48.4533C34.2133 48.4533 34.56 48.32 34.8267 48.0533C35.36 47.5467 35.36 46.6933 34.8267 46.16L32.9333 44.2933V44.2667ZM51.7867 14.08L55.6 10.2667C56.1333 9.76 56.1333 8.90667 55.6 8.4C55.0933 7.86667 54.24 7.86667 53.7333 8.4L49.92 12.2133L48.0267 10.32C45.44 7.70667 41.2 7.70667 38.5867 10.32L32 16.9067L31.0667 15.9733C30.5333 15.44 29.68 15.44 29.1733 15.9733C28.64 16.5067 28.64 17.3333 29.1733 17.8667L33.8933 22.5867L29.1733 27.3067C28.64 27.84 28.64 28.6667 29.1733 29.2C29.44 29.4667 29.7867 29.6 30.1067 29.6C30.4267 29.6 30.8 29.4667 31.04 29.2L35.76 24.48L39.52 28.24L34.8 32.96C34.2667 33.4933 34.2667 34.32 34.8 34.8533C35.0667 35.12 35.4133 35.2533 35.7333 35.2533C36.0533 35.2533 36.4267 35.12 36.6667 34.8533L41.3867 30.1333L46.08 34.8533C46.3467 35.12 46.6933 35.2533 47.04 35.2533C47.3867 35.2533 47.7067 35.12 47.9733 34.8533C48.5067 34.3467 48.5067 33.4933 47.9733 32.96L47.04 32.0267L53.6267 25.4133C54.88 24.16 55.5733 22.5067 55.5733 20.72C55.5733 18.9333 54.88 17.2533 53.6267 16L51.7333 14.1067L51.7867 14.08Z" fill="#232323"/>
</svg>
