<svg width="64" height="64" viewBox="0 0 64 64" fill="none" xmlns="http://www.w3.org/2000/svg">
<path d="M46.24 24.0533C44.9067 22.72 42.6667 23.68 42.6667 25.5467V30.6933H21.3333V25.5467C21.3333 23.68 19.0667 22.7467 17.76 24.0533L11.28 30.5333C10.88 30.9333 10.6667 31.4667 10.6667 32.0267C10.6667 32.5867 10.88 33.0933 11.28 33.52L17.76 40C19.0933 41.3333 21.3333 40.3733 21.3333 38.5067V33.36H42.6667V38.5067C42.6667 40.3733 44.9333 41.3067 46.24 40L52.72 33.52C53.12 33.12 53.3333 32.5867 53.3333 32.0267C53.3333 31.4667 53.12 30.96 52.72 30.5333L46.24 24.0533ZM9.33333 16C8.58667 16 8 16.5867 8 17.3333V46.6667C8 47.4133 8.58667 48 9.33333 48C10.08 48 10.6667 47.4133 10.6667 46.6667V17.3333C10.6667 16.5867 10.08 16 9.33333 16ZM54.6667 16C53.92 16 53.3333 16.5867 53.3333 17.3333V46.6667C53.3333 47.4133 53.92 48 54.6667 48C55.4133 48 56 47.4133 56 46.6667V17.3333C56 16.5867 55.4133 16 54.6667 16Z" fill="#232323"/>
</svg>
