<svg width="64" height="64" viewBox="0 0 64 64" fill="none" xmlns="http://www.w3.org/2000/svg">
<path d="M29.3334 32C29.3334 31.2533 28.7467 30.6667 28 30.6667H18.6667V25.5467C18.6667 23.68 16.4 22.7467 15.0934 24.0533L8.64002 30.5067C7.81335 31.3333 7.81335 32.64 8.64002 33.4667L15.0934 39.92C16.4 41.2267 18.6667 40.2933 18.6667 38.4267V33.3067H28C28.7467 33.3067 29.3334 32.72 29.3334 31.9733V32ZM46.6667 8H33.3334C28.1867 8 24 12.1867 24 17.3333V25.3333C24 26.08 24.5867 26.6667 25.3334 26.6667C26.08 26.6667 26.6667 26.08 26.6667 25.3333V17.3333C26.6667 13.6533 29.6534 10.6667 33.3334 10.6667H34.8267C33.0667 12.3467 32 14.72 32 17.3333V46.6667C32 49.28 33.0667 51.6533 34.8267 53.3333H33.3334C29.6534 53.3333 26.6667 50.3467 26.6667 46.6667V38.6667C26.6667 37.92 26.08 37.3333 25.3334 37.3333C24.5867 37.3333 24 37.92 24 38.6667V46.6667C24 51.8133 28.1867 56 33.3334 56H46.6667C51.8134 56 56 51.8133 56 46.6667V17.3333C56 12.1867 51.8134 8 46.6667 8ZM40 36C40 36.7467 39.4134 37.3333 38.6667 37.3333C37.92 37.3333 37.3334 36.7467 37.3334 36V28C37.3334 27.2533 37.92 26.6667 38.6667 26.6667C39.4134 26.6667 40 27.2533 40 28V36Z" fill="#232323"/>
</svg>
