<svg width="64" height="64" viewBox="0 0 64 64" fill="none" xmlns="http://www.w3.org/2000/svg">
<path d="M50.6667 8H13.3333C10.4 8 8 10.4 8 13.3333V18.3467C8 19.76 8.56 21.12 9.57333 22.1067L24.72 37.2533C25.9467 38.5067 26.6667 40.2133 26.6667 41.9733V52C26.6667 54.2133 28.4533 56 30.6667 56H33.3333C35.5467 56 37.3333 54.2133 37.3333 52V41.9733C37.3333 40.2133 38.0533 38.5067 39.28 37.2533L54.4267 22.1067C55.44 21.12 56 19.76 56 18.3467V13.3333C56 10.4 53.6 8 50.6667 8ZM46.6667 21.3333H17.3333C16.5867 21.3333 16 20.7467 16 20C16 19.2533 16.5867 18.6667 17.3333 18.6667H46.6667C47.4133 18.6667 48 19.2533 48 20C48 20.7467 47.4133 21.3333 46.6667 21.3333Z" fill="#232323"/>
</svg>
