<svg width="64" height="64" viewBox="0 0 64 64" fill="none" xmlns="http://www.w3.org/2000/svg">
<path d="M22.6667 53.3333H17.3333C13.6533 53.3333 10.6667 50.3467 10.6667 46.6667V41.3333C10.6667 40.5867 10.08 40 9.33333 40C8.58667 40 8 40.5867 8 41.3333V46.6667C8 51.8133 12.1867 56 17.3333 56H22.6667C23.4133 56 24 55.4133 24 54.6667C24 53.92 23.4133 53.3333 22.6667 53.3333ZM54.6667 40C53.92 40 53.3333 40.5867 53.3333 41.3333V46.6667C53.3333 50.3467 50.3467 53.3333 46.6667 53.3333H41.3333C40.5867 53.3333 40 53.92 40 54.6667C40 55.4133 40.5867 56 41.3333 56H46.6667C51.8133 56 56 51.8133 56 46.6667V41.3333C56 40.5867 55.4133 40 54.6667 40ZM46.6667 8H41.3333C40.5867 8 40 8.58667 40 9.33333C40 10.08 40.5867 10.6667 41.3333 10.6667H46.6667C50.3467 10.6667 53.3333 13.6533 53.3333 17.3333V22.6667C53.3333 23.4133 53.92 24 54.6667 24C55.4133 24 56 23.4133 56 22.6667V17.3333C56 12.1867 51.8133 8 46.6667 8ZM9.33333 24C10.08 24 10.6667 23.4133 10.6667 22.6667V17.3333C10.6667 13.6533 13.6533 10.6667 17.3333 10.6667H22.6667C23.4133 10.6667 24 10.08 24 9.33333C24 8.58667 23.4133 8 22.6667 8H17.3333C12.1867 8 8 12.1867 8 17.3333V22.6667C8 23.4133 8.58667 24 9.33333 24ZM22.6667 48H17.3333C16.5867 48 16 47.4133 16 46.6667V41.3333C16 40.5867 15.4133 40 14.6667 40C13.92 40 13.3333 40.5867 13.3333 41.3333V46.6667C13.3333 48.88 15.12 50.6667 17.3333 50.6667H22.6667C23.4133 50.6667 24 50.08 24 49.3333C24 48.5867 23.4133 48 22.6667 48ZM49.3333 40C48.5867 40 48 40.5867 48 41.3333V46.6667C48 47.4133 47.4133 48 46.6667 48H41.3333C40.5867 48 40 48.5867 40 49.3333C40 50.08 40.5867 50.6667 41.3333 50.6667H46.6667C48.88 50.6667 50.6667 48.88 50.6667 46.6667V41.3333C50.6667 40.5867 50.08 40 49.3333 40ZM50.6667 17.3333C50.6667 15.12 48.88 13.3333 46.6667 13.3333H41.3333C40.5867 13.3333 40 13.92 40 14.6667C40 15.4133 40.5867 16 41.3333 16H46.6667C47.4133 16 48 16.5867 48 17.3333V22.6667C48 23.4133 48.5867 24 49.3333 24C50.08 24 50.6667 23.4133 50.6667 22.6667V17.3333ZM22.6667 13.3333H17.3333C15.12 13.3333 13.3333 15.12 13.3333 17.3333V22.6667C13.3333 23.4133 13.92 24 14.6667 24C15.4133 24 16 23.4133 16 22.6667V17.3333C16 16.5867 16.5867 16 17.3333 16H22.6667C23.4133 16 24 15.4133 24 14.6667C24 13.92 23.4133 13.3333 22.6667 13.3333ZM32 21.3333C26.1067 21.3333 21.3333 26.1067 21.3333 32C21.3333 37.8933 26.1067 42.6667 32 42.6667C37.8933 42.6667 42.6667 37.8933 42.6667 32C42.6667 26.1067 37.8933 21.3333 32 21.3333ZM32 40C27.6 40 24 36.4 24 32C24 27.6 27.6 24 32 24C36.4 24 40 27.6 40 32C40 36.4 36.4 40 32 40Z" fill="#232323"/>
</svg>
