<svg width="64" height="64" viewBox="0 0 64 64" fill="none" xmlns="http://www.w3.org/2000/svg">
<path d="M32 8C18.7733 8 8 18.7733 8 32C8 45.2267 18.7733 56 32 56C45.2267 56 56 45.2267 56 32C56 18.7733 45.2267 8 32 8ZM31.2267 33.84L23.1467 41.92C21.4933 43.5733 18.6933 42.4 18.6933 40.0533V23.9467C18.6933 21.6 21.4933 20.4267 23.1467 22.08L31.2267 30.16C32.24 31.1733 32.24 32.8267 31.2267 33.84ZM47.2267 33.84L39.1467 41.92C37.4933 43.5733 34.6933 42.4 34.6933 40.0533V23.9467C34.6933 21.6 37.4933 20.4267 39.1467 22.08L47.2267 30.16C48.24 31.1733 48.24 32.8267 47.2267 33.84Z" fill="#232323"/>
</svg>
