<svg width="64" height="64" viewBox="0 0 64 64" fill="none" xmlns="http://www.w3.org/2000/svg">
<path d="M49.3333 16H33.3333V13.0933C34.88 12.56 36 11.0666 36 9.33331C36 7.11998 34.2133 5.33331 32 5.33331C29.7866 5.33331 28 7.11998 28 9.33331C28 11.0666 29.12 12.56 30.6666 13.0933V16H14.6666C9.51998 16 5.33331 20.1866 5.33331 25.3333V43.0933C5.33331 47.3866 8.23998 51.0933 12.4 52.1333L17.52 53.4133L23.3866 50.2133C28.7733 47.28 35.2266 47.28 40.6133 50.2133L46.48 53.4133L51.6 52.1333C55.76 51.0933 58.6666 47.3866 58.6666 43.0933V25.3333C58.6666 20.1866 54.48 16 49.3333 16ZM25.3333 32H21.3333V36C21.3333 36.7466 20.7466 37.3333 20 37.3333C19.2533 37.3333 18.6666 36.7466 18.6666 36V32H14.6666C13.92 32 13.3333 31.4133 13.3333 30.6666C13.3333 29.92 13.92 29.3333 14.6666 29.3333H18.6666V25.3333C18.6666 24.5866 19.2533 24 20 24C20.7466 24 21.3333 24.5866 21.3333 25.3333V29.3333H25.3333C26.08 29.3333 26.6666 29.92 26.6666 30.6666C26.6666 31.4133 26.08 32 25.3333 32ZM32 10.6666C31.2533 10.6666 30.6666 10.08 30.6666 9.33331C30.6666 8.58665 31.2533 7.99998 32 7.99998C32.7466 7.99998 33.3333 8.58665 33.3333 9.33331C33.3333 10.08 32.7466 10.6666 32 10.6666ZM49.3333 32H45.3333V36C45.3333 36.7466 44.7466 37.3333 44 37.3333C43.2533 37.3333 42.6666 36.7466 42.6666 36V32H38.6666C37.92 32 37.3333 31.4133 37.3333 30.6666C37.3333 29.92 37.92 29.3333 38.6666 29.3333H42.6666V25.3333C42.6666 24.5866 43.2533 24 44 24C44.7466 24 45.3333 24.5866 45.3333 25.3333V29.3333H49.3333C50.08 29.3333 50.6666 29.92 50.6666 30.6666C50.6666 31.4133 50.08 32 49.3333 32Z" fill="#232323"/>
</svg>
