<svg width="64" height="64" viewBox="0 0 64 64" fill="none" xmlns="http://www.w3.org/2000/svg">
<path d="M45.3333 18.6666C37.9733 18.6666 32 24.64 32 32C32 39.36 37.9733 45.3333 45.3333 45.3333C52.6933 45.3333 58.6666 39.36 58.6666 32C58.6666 24.64 52.6933 18.6666 45.3333 18.6666ZM37.8133 31.9733C37.28 31.4666 37.28 30.6133 37.8133 30.1066L43.44 24.48C43.9466 23.9466 44.8 23.9466 45.3066 24.48C45.84 24.9866 45.84 25.84 45.3066 26.3466L39.68 31.9733C39.44 32.24 39.0933 32.3733 38.7466 32.3733C38.4 32.3733 38.0533 32.24 37.8133 31.9733ZM40.6133 38.0533C40.2666 38.0533 39.92 37.92 39.68 37.6533C39.1466 37.1466 39.1466 36.2933 39.68 35.7866L49.12 26.3466C49.6266 25.8133 50.48 25.8133 50.9866 26.3466C51.52 26.8533 51.52 27.7066 50.9866 28.2133L41.5466 37.6533C41.3066 37.92 40.96 38.0533 40.6133 38.0533ZM52.8533 33.8933L47.2266 39.52C46.9866 39.7866 46.64 39.92 46.2933 39.92C45.9466 39.92 45.6 39.7866 45.36 39.52C44.8266 39.0133 44.8266 38.16 45.36 37.6533L50.9866 32.0266C51.4933 31.4933 52.3466 31.4933 52.8533 32.0266C53.3866 32.5333 53.3866 33.3866 52.8533 33.8933ZM18.6666 18.6666C11.3066 18.6666 5.33331 24.64 5.33331 32C5.33331 39.36 11.3066 45.3333 18.6666 45.3333C26.0266 45.3333 32 39.36 32 32C32 24.64 26.0266 18.6666 18.6666 18.6666ZM18.6666 42.6666C12.7733 42.6666 7.99998 37.8933 7.99998 32C7.99998 26.1066 12.7733 21.3333 18.6666 21.3333C24.56 21.3333 29.3333 26.1066 29.3333 32C29.3333 37.8933 24.56 42.6666 18.6666 42.6666ZM6.66665 21.3333C7.41331 21.3333 7.99998 20.7466 7.99998 20V16H12C12.7466 16 13.3333 15.4133 13.3333 14.6666C13.3333 13.92 12.7466 13.3333 12 13.3333H5.33331V20C5.33331 20.7466 5.91998 21.3333 6.66665 21.3333ZM25.3333 16H29.3333V20C29.3333 20.7466 29.92 21.3333 30.6666 21.3333C31.4133 21.3333 32 20.7466 32 20V13.3333H25.3333C24.5866 13.3333 24 13.92 24 14.6666C24 15.4133 24.5866 16 25.3333 16ZM12 48H7.99998V44C7.99998 43.2533 7.41331 42.6666 6.66665 42.6666C5.91998 42.6666 5.33331 43.2533 5.33331 44V50.6666H12C12.7466 50.6666 13.3333 50.08 13.3333 49.3333C13.3333 48.5866 12.7466 48 12 48ZM30.6666 42.6666C29.92 42.6666 29.3333 43.2533 29.3333 44V48H25.3333C24.5866 48 24 48.5866 24 49.3333C24 50.08 24.5866 50.6666 25.3333 50.6666H32V44C32 43.2533 31.4133 42.6666 30.6666 42.6666Z" fill="#232323"/>
</svg>
