<svg width="64" height="64" viewBox="0 0 64 64" fill="none" xmlns="http://www.w3.org/2000/svg">
<path d="M32 5.33331C21.7066 5.33331 13.3333 13.7066 13.3333 24C13.3333 24.6666 13.36 25.3066 13.44 25.8933C14.48 45.12 30.56 56.6133 31.2266 57.0933L32 57.6266L32.7733 57.0933C33.44 56.6133 49.4933 45.1466 50.56 25.9466C50.64 25.3066 50.6666 24.6666 50.6666 24C50.6666 13.7066 42.2933 5.33331 32 5.33331ZM32 32C27.6 32 24 28.4 24 24C24 19.6 27.6 16 32 16C36.4 16 40 19.6 40 24C40 28.4 36.4 32 32 32Z" fill="#232323"/>
</svg>
