<svg width="64" height="64" viewBox="0 0 64 64" fill="none" xmlns="http://www.w3.org/2000/svg">
<path d="M44 5.33331H20C14.8534 5.33331 10.6667 9.51998 10.6667 14.6666V49.3333C10.6667 54.48 14.8534 58.6666 20 58.6666H44C49.1467 58.6666 53.3334 54.48 53.3334 49.3333V14.6666C53.3334 9.51998 49.1467 5.33331 44 5.33331ZM34.2667 47.6C34.0267 47.8666 33.68 48 33.3334 48C33.1467 48 32.9867 47.9733 32.8267 47.8933C32.6667 47.84 32.5067 47.7333 32.4 47.6C32.1334 47.36 32 47.04 32 46.6666C32 46.32 32.1334 45.9733 32.4 45.7333C32.5067 45.6 32.6667 45.4933 32.8267 45.44C33.1467 45.3066 33.52 45.3066 33.84 45.44C34 45.4933 34.16 45.6 34.2667 45.7333C34.5334 45.9733 34.6667 46.32 34.6667 46.6666C34.6667 47.04 34.5334 47.36 34.2667 47.6ZM39.6 47.6C39.6 47.6 39.3334 47.84 39.1734 47.8933C39.0134 47.9733 38.8534 48 38.6667 48C38.32 48 37.9734 47.8666 37.7334 47.6C37.4667 47.36 37.3334 47.04 37.3334 46.6666C37.3334 46.32 37.4667 45.9733 37.7334 45.7333C38.08 45.36 38.6934 45.2266 39.1734 45.44C39.3334 45.4933 39.4934 45.6 39.6 45.7333C39.8667 45.9733 40 46.32 40 46.6666C40 47.04 39.8667 47.36 39.6 47.6ZM44.9334 47.6C44.6934 47.8666 44.3467 48 44 48C43.6534 48 43.3067 47.8666 43.0667 47.6C42.8 47.36 42.6667 47.0133 42.6667 46.6666C42.6667 46.32 42.8 45.9733 43.0667 45.7333C43.5467 45.2266 44.4534 45.2266 44.9334 45.7333C45.2 45.9733 45.3334 46.32 45.3334 46.6666C45.3334 47.04 45.2 47.36 44.9334 47.6ZM44 37.3333H33.3334C32.5867 37.3333 32 36.7466 32 36C32 35.2533 32.5867 34.6666 33.3334 34.6666H44C44.7467 34.6666 45.3334 35.2533 45.3334 36C45.3334 36.7466 44.7467 37.3333 44 37.3333ZM44 32H20C19.2534 32 18.6667 31.4133 18.6667 30.6666C18.6667 29.92 19.2534 29.3333 20 29.3333H44C44.7467 29.3333 45.3334 29.92 45.3334 30.6666C45.3334 31.4133 44.7467 32 44 32ZM44 21.3333H33.3334C32.5867 21.3333 32 20.7466 32 20C32 19.2533 32.5867 18.6666 33.3334 18.6666H44C44.7467 18.6666 45.3334 19.2533 45.3334 20C45.3334 20.7466 44.7467 21.3333 44 21.3333ZM44 16H20C19.2534 16 18.6667 15.4133 18.6667 14.6666C18.6667 13.92 19.2534 13.3333 20 13.3333H44C44.7467 13.3333 45.3334 13.92 45.3334 14.6666C45.3334 15.4133 44.7467 16 44 16Z" fill="#232323"/>
</svg>
