<svg width="64" height="64" viewBox="0 0 64 64" fill="none" xmlns="http://www.w3.org/2000/svg">
<path d="M32 8C18.7733 8 8 18.7733 8 32C8 45.2267 18.7733 56 32 56C45.2267 56 56 45.2267 56 32C56 18.7733 45.2267 8 32 8ZM30.6667 17.3333C30.6667 16.5867 31.2533 16 32 16C32.7467 16 33.3333 16.5867 33.3333 17.3333V30.6667C33.3333 31.4133 32.7467 32 32 32C31.2533 32 30.6667 31.4133 30.6667 30.6667V17.3333ZM32 45.3333C24.64 45.3333 18.6667 39.36 18.6667 32C18.6667 27.5733 20.8533 23.44 24.5333 20.9333C25.1467 20.5333 25.9733 20.6933 26.4 21.3067C26.8 21.92 26.64 22.7467 26.0267 23.1467C23.0933 25.1467 21.3333 28.4533 21.3333 32C21.3333 37.8933 26.1067 42.6667 32 42.6667C37.8933 42.6667 42.6667 37.8933 42.6667 32C42.6667 28.4267 40.88 25.12 37.92 23.12C37.3067 22.72 37.1467 21.8933 37.5467 21.28C37.9733 20.6667 38.8 20.5067 39.4133 20.9067C43.12 23.3867 45.3333 27.5467 45.3333 32C45.3333 39.36 39.36 45.3333 32 45.3333Z" fill="#232323"/>
</svg>
