<svg width="64" height="64" viewBox="0 0 64 64" fill="none" xmlns="http://www.w3.org/2000/svg">
<path d="M32 8C18.7733 8 8 18.7733 8 32C8 45.2267 18.7733 56 32 56C45.2267 56 56 45.2267 56 32C56 18.7733 45.2267 8 32 8ZM29.3333 41.3333C29.3333 42.08 28.7467 42.6667 28 42.6667C27.2533 42.6667 26.6667 42.08 26.6667 41.3333V22.6667C26.6667 21.92 27.2533 21.3333 28 21.3333C28.7467 21.3333 29.3333 21.92 29.3333 22.6667V41.3333ZM37.3333 41.3333C37.3333 42.08 36.7467 42.6667 36 42.6667C35.2533 42.6667 34.6667 42.08 34.6667 41.3333V22.6667C34.6667 21.92 35.2533 21.3333 36 21.3333C36.7467 21.3333 37.3333 21.92 37.3333 22.6667V41.3333Z" fill="#232323"/>
</svg>
