<svg width="64" height="64" viewBox="0 0 64 64" fill="none" xmlns="http://www.w3.org/2000/svg">
<path d="M27.2533 50.8533C26.6133 50.48 25.7866 50.6933 25.44 51.3333C23.7866 54.2133 20.6666 56 17.36 56C12.2133 56 8.02664 51.8133 8.02664 46.6667C8.02664 41.52 12.2133 37.3333 17.36 37.3333C18.1066 37.3333 18.6933 36.7467 18.6933 36C18.6933 35.2533 18.1066 34.6667 17.36 34.6667C10.7466 34.6667 5.35997 40.0533 5.35997 46.6667C5.35997 53.28 10.7466 58.6667 17.36 58.6667C21.6266 58.6667 25.6266 56.3733 27.76 52.6667C28.1333 52.0267 27.92 51.2267 27.28 50.8533H27.2533ZM17.3333 29.3333C18.08 29.3333 18.6666 28.7467 18.6666 28C18.6666 27.2533 18.08 26.6667 17.3333 26.6667C12.1866 26.6667 7.99997 22.48 7.99997 17.3333C7.99997 12.1867 12.1866 8.00001 17.3333 8.00001C20.6666 8.00001 23.76 9.78668 25.4133 12.6667C25.7866 13.3067 26.5866 13.52 27.2266 13.1467C27.8666 12.7733 28.08 11.9733 27.7066 11.3333C25.5733 7.62668 21.5733 5.33334 17.3066 5.33334C10.6933 5.33334 5.30664 10.72 5.30664 17.3333C5.30664 23.9467 10.6933 29.3333 17.3066 29.3333H17.3333ZM36.7733 13.1467C37.4133 13.52 38.2133 13.3067 38.5866 12.6667C40.24 9.78668 43.36 8.00001 46.6666 8.00001C51.8133 8.00001 56 12.1867 56 17.3333C56 22.48 51.8133 26.6667 46.6666 26.6667C45.92 26.6667 45.3333 27.2533 45.3333 28C45.3333 28.7467 45.92 29.3333 46.6666 29.3333C53.28 29.3333 58.6666 23.9467 58.6666 17.3333C58.6666 10.72 53.28 5.33334 46.6666 5.33334C42.4 5.33334 38.4 7.62668 36.2666 11.3333C35.8933 11.9733 36.1066 12.7733 36.7466 13.1467H36.7733ZM41.92 44.3467C42.72 44.8267 43.4933 45.36 44.16 46.0267L45.7333 47.6C46 47.8667 46.3466 48 46.6666 48C46.9866 48 47.36 47.8667 47.6 47.6C48.1333 47.0667 48.1333 46.24 47.6 45.7067L46.0266 44.1333C45.04 43.1467 43.8666 42.3467 42.6133 41.7067C42.6133 41.5733 42.64 41.44 42.64 41.3067V22.64C42.64 22.64 42.6133 22.3733 42.6133 22.24C43.84 21.6 45.04 20.8 46.0266 19.8133L47.6 18.24C48.1333 17.7067 48.1333 16.88 47.6 16.3467C47.0666 15.8133 46.24 15.8133 45.7066 16.3467L44.1333 17.92C43.4666 18.5867 42.6933 19.12 41.8933 19.6C40.8 17.44 38.56 15.9467 35.9733 15.9467H27.9733C25.3866 15.9467 23.1733 17.44 22.0533 19.6C21.2533 19.12 20.48 18.5867 19.8133 17.92L18.24 16.3467C17.7066 15.8133 16.88 15.8133 16.3466 16.3467C15.8133 16.88 15.8133 17.7067 16.3466 18.24L17.92 19.8133C18.9066 20.8 20.1066 21.6 21.3333 22.24C21.3333 22.3733 21.3066 22.5067 21.3066 22.64V41.3067C21.3066 41.3067 21.3333 41.5733 21.3333 41.7067C20.1066 42.3467 18.9066 43.1467 17.92 44.1333L16.3466 45.7067C15.8133 46.24 15.8133 47.0667 16.3466 47.6C16.6133 47.8667 16.96 48 17.28 48C17.6 48 17.9733 47.8667 18.2133 47.6L19.7866 46.0267C20.4533 45.36 21.2266 44.8267 22.0266 44.3467C23.12 46.5067 25.36 48 27.9466 48H35.9466C38.5333 48 40.7466 46.5067 41.8666 44.3467H41.92ZM46.6666 34.6667C45.92 34.6667 45.3333 35.2533 45.3333 36C45.3333 36.7467 45.92 37.3333 46.6666 37.3333C51.8133 37.3333 56 41.52 56 46.6667C56 51.8133 51.8133 56 46.6666 56C43.3333 56 40.24 54.2133 38.5866 51.3333C38.2133 50.6933 37.3866 50.48 36.7733 50.8533C36.1333 51.2267 35.92 52.0267 36.2933 52.6667C38.4266 56.3733 42.4266 58.6667 46.6933 58.6667C53.3066 58.6667 58.6933 53.28 58.6933 46.6667C58.6933 40.0533 53.3066 34.6667 46.6933 34.6667H46.6666Z" fill="#232323"/>
</svg>
