<svg width="64" height="64" viewBox="0 0 64 64" fill="none" xmlns="http://www.w3.org/2000/svg">
<path d="M56.8533 24H53.3333V20C53.3333 14.8534 49.1466 10.6667 44 10.6667H20C14.8533 10.6667 10.6666 14.8534 10.6666 20V25.3334C10.6666 26.08 11.2533 26.6667 12 26.6667C12.7466 26.6667 13.3333 26.08 13.3333 25.3334V20C13.3333 16.32 16.32 13.3334 20 13.3334H44C47.68 13.3334 50.6666 16.32 50.6666 20V24H47.1466C45.7333 24 45.04 25.7067 46.0266 26.6934L50.88 31.5467C51.4933 32.16 52.48 32.16 53.0933 31.5467L57.9466 26.6934C58.9333 25.7067 58.24 24 56.8266 24H56.8533ZM52 37.3334C51.2533 37.3334 50.6666 37.92 50.6666 38.6667V44C50.6666 47.68 47.68 50.6667 44 50.6667H20C16.32 50.6667 13.3333 47.68 13.3333 44V40H16.8533C18.2666 40 18.96 38.2934 17.9733 37.3067L13.12 32.4534C12.5066 31.84 11.52 31.84 10.9066 32.4534L6.05331 37.3067C5.06664 38.2934 5.75998 40 7.17331 40H10.6933V44C10.6933 49.1467 14.88 53.3334 20.0266 53.3334H44.0266C49.1733 53.3334 53.36 49.1467 53.36 44V38.6667C53.36 37.92 52.7733 37.3334 52.0266 37.3334H52ZM42.6666 25.84L32 19.68L21.3333 25.84V38.16L32 44.32L42.6666 38.16V25.84ZM32 37.3334C29.0666 37.3334 26.6666 34.9334 26.6666 32C26.6666 29.0667 29.0666 26.6667 32 26.6667C34.9333 26.6667 37.3333 29.0667 37.3333 32C37.3333 34.9334 34.9333 37.3334 32 37.3334Z" fill="#232323"/>
</svg>
