<svg width="64" height="64" viewBox="0 0 64 64" fill="none" xmlns="http://www.w3.org/2000/svg">
<path d="M18.6666 18.6666C11.3066 18.6666 5.33331 24.64 5.33331 32C5.33331 39.36 11.3066 45.3333 18.6666 45.3333C26.0266 45.3333 32 39.36 32 32C32 24.64 26.0266 18.6666 18.6666 18.6666ZM11.1466 31.9733C10.6133 31.4666 10.6133 30.6133 11.1466 30.1066L16.7733 24.48C17.28 23.9466 18.1333 23.9466 18.64 24.48C19.1733 24.9866 19.1733 25.84 18.64 26.3466L13.0133 31.9733C12.7733 32.24 12.4266 32.3733 12.08 32.3733C11.7333 32.3733 11.3866 32.24 11.1466 31.9733ZM13.9466 38.0533C13.6 38.0533 13.2533 37.92 13.0133 37.6533C12.48 37.1466 12.48 36.2933 13.0133 35.7866L22.4533 26.3466C22.96 25.8133 23.8133 25.8133 24.32 26.3466C24.8533 26.8533 24.8533 27.7066 24.32 28.2133L14.88 37.6533C14.64 37.92 14.2933 38.0533 13.9466 38.0533ZM26.1866 33.8933L20.56 39.52C20.32 39.7866 19.9733 39.92 19.6266 39.92C19.28 39.92 18.9333 39.7866 18.6933 39.52C18.16 39.0133 18.16 38.16 18.6933 37.6533L24.32 32.0266C24.8266 31.4933 25.68 31.4933 26.1866 32.0266C26.72 32.5333 26.72 33.3866 26.1866 33.8933ZM45.3333 18.6666C37.9733 18.6666 32 24.64 32 32C32 39.36 37.9733 45.3333 45.3333 45.3333C52.6933 45.3333 58.6666 39.36 58.6666 32C58.6666 24.64 52.6933 18.6666 45.3333 18.6666ZM45.3333 42.6666C39.44 42.6666 34.6666 37.8933 34.6666 32C34.6666 26.1066 39.44 21.3333 45.3333 21.3333C51.2266 21.3333 56 26.1066 56 32C56 37.8933 51.2266 42.6666 45.3333 42.6666ZM33.3333 21.3333C34.08 21.3333 34.6666 20.7466 34.6666 20V16H38.6666C39.4133 16 40 15.4133 40 14.6666C40 13.92 39.4133 13.3333 38.6666 13.3333H32V20C32 20.7466 32.5866 21.3333 33.3333 21.3333ZM52 13.3333C51.2533 13.3333 50.6666 13.92 50.6666 14.6666C50.6666 15.4133 51.2533 16 52 16H56V20C56 20.7466 56.5866 21.3333 57.3333 21.3333C58.08 21.3333 58.6666 20.7466 58.6666 20V13.3333H52ZM38.6666 48H34.6666V44C34.6666 43.2533 34.08 42.6666 33.3333 42.6666C32.5866 42.6666 32 43.2533 32 44V50.6666H38.6666C39.4133 50.6666 40 50.08 40 49.3333C40 48.5866 39.4133 48 38.6666 48ZM57.3333 42.6666C56.5866 42.6666 56 43.2533 56 44V48H52C51.2533 48 50.6666 48.5866 50.6666 49.3333C50.6666 50.08 51.2533 50.6666 52 50.6666H58.6666V44C58.6666 43.2533 58.08 42.6666 57.3333 42.6666Z" fill="#232323"/>
</svg>
