<svg width="64" height="64" viewBox="0 0 64 64" fill="none" xmlns="http://www.w3.org/2000/svg">
<path d="M49.6267 13.0667C46.3467 9.81333 42 8 37.36 8H26.64C22 8 17.6533 9.81333 14.3733 13.0667L8 19.44V20C8 32.1333 13.92 43.52 23.8133 50.5333L32 56.2933L40.1867 50.5333C50.08 43.52 56 32.1333 56 20V19.44L49.6267 13.0667ZM32 42.6133C24.6667 42.6133 18.6933 36.64 18.6933 29.3067C18.6933 21.9733 24.6667 16 32 16C36.2667 16 40.2933 18.0533 42.8 21.52C43.1733 22.0533 43.12 22.7733 42.6667 23.2533L31.6 34.2667C31.0933 34.8 30.24 34.8 29.7333 34.2667L24.4 28.9333C23.8667 28.4267 23.8667 27.5733 24.4 27.0667C24.9067 26.5333 25.76 26.5333 26.2667 27.0667L30.6667 31.44L39.92 22.2133C37.92 19.9733 35.0133 18.6667 32 18.6667C26.1333 18.6667 21.36 23.44 21.36 29.3067C21.36 35.1733 26.1333 39.9467 32 39.9467C37.8667 39.9467 42.64 35.1733 42.64 29.3067C42.64 28.9067 42.6133 28.5333 42.5867 28.1333C42.5067 27.4133 43.0133 26.7467 43.76 26.6667C44.48 26.6133 45.1467 27.12 45.2267 27.8667C45.28 28.32 45.3067 28.8267 45.3067 29.3067C45.3067 36.64 39.3333 42.6133 32 42.6133Z" fill="#232323"/>
</svg>
