<svg width="64" height="64" viewBox="0 0 64 64" fill="none" xmlns="http://www.w3.org/2000/svg">
<path d="M55.6 53.7333L40.7467 38.88C43.6 35.6 45.3333 31.3333 45.3333 26.6667C45.3333 16.3733 36.96 8 26.6667 8C16.3733 8 8 16.3733 8 26.6667C8 36.96 16.3733 45.3333 26.6667 45.3333C31.3333 45.3333 35.6 43.6 38.88 40.7467L53.7333 55.6C54 55.8667 54.3467 56 54.6667 56C54.9867 56 55.36 55.8667 55.6 55.6C56.1333 55.0667 56.1333 54.24 55.6 53.7067V53.7333ZM10.6667 26.6667C10.6667 17.84 17.84 10.6667 26.6667 10.6667C35.4933 10.6667 42.6667 17.84 42.6667 26.6667C42.6667 35.4933 35.4933 42.6667 26.6667 42.6667C17.84 42.6667 10.6667 35.4933 10.6667 26.6667Z" fill="#232323"/>
</svg>
