<svg width="64" height="64" viewBox="0 0 64 64" fill="none" xmlns="http://www.w3.org/2000/svg">
<path d="M29.3333 8.90665L13.3333 18.1333C11.68 19.0933 10.6666 20.8533 10.6666 22.7466V41.2266C10.6666 43.12 11.68 44.88 13.3333 45.84L29.3333 55.0666C30.9866 56.0266 33.0133 56.0266 34.6666 55.0666L50.6666 45.84C52.32 44.88 53.3333 43.12 53.3333 41.2266V22.7466C53.3333 20.8533 52.32 19.0933 50.6666 18.1333L34.6666 8.90665C33.0133 7.94665 30.9866 7.94665 29.3333 8.90665ZM34.64 39.5733C28.24 41.6533 22.3466 35.76 24.4266 29.36C25.1733 27.04 27.0666 25.1733 29.36 24.4266C35.76 22.3466 41.6533 28.24 39.5733 34.64C38.8266 36.96 36.9333 38.8266 34.64 39.5733Z" fill="#232323"/>
</svg>
