<svg width="64" height="64" viewBox="0 0 64 64" fill="none" xmlns="http://www.w3.org/2000/svg">
<path d="M32 8C18.7733 8 8 18.7733 8 32C8 45.2267 18.7733 56 32 56C45.2267 56 56 45.2267 56 32C56 18.7733 45.2267 8 32 8ZM40 41.3333C40 42.08 39.4133 42.6667 38.6667 42.6667C37.92 42.6667 37.3333 42.08 37.3333 41.3333V32C37.3333 32.6667 37.0667 33.3333 36.56 33.84L28.48 41.92C26.8267 43.5733 24.0267 42.4 24.0267 40.0533V23.9467C24.0267 21.6 26.8267 20.4267 28.48 22.08L36.56 30.16C37.0667 30.6667 37.3333 31.3333 37.3333 32V22.6667C37.3333 21.92 37.92 21.3333 38.6667 21.3333C39.4133 21.3333 40 21.92 40 22.6667V41.3333Z" fill="#232323"/>
</svg>
