<svg width="64" height="64" viewBox="0 0 64 64" fill="none" xmlns="http://www.w3.org/2000/svg">
<path d="M50.0267 15.7333L42.96 8.66667C42.5867 8.29333 42.1067 8.08 41.6267 8.02667C41.5467 8 41.44 8 41.3333 8C41.2267 8 41.12 8 41.04 8.02667C40.4267 8.16 40 8.69333 40 9.33333V52C40 52.7467 40.5867 53.3333 41.3333 53.3333C42.08 53.3333 42.6667 52.7467 42.6667 52V19.6533H48.4C50.4267 19.6533 51.4667 17.1733 50.0267 15.7333ZM22.6667 10.6667C21.92 10.6667 21.3333 11.2533 21.3333 12V44.3467H15.6C13.5733 44.3467 12.5333 46.8267 13.9733 48.2667L21.04 55.3333C21.4133 55.7067 21.8933 55.92 22.3733 55.9733C22.4533 56 22.56 56 22.6667 56C22.7733 56 22.88 56 22.96 55.9733C23.5733 55.84 24 55.3067 24 54.6667V12C24 11.2533 23.4133 10.6667 22.6667 10.6667Z" fill="#232323"/>
</svg>
