<svg width="64" height="64" viewBox="0 0 64 64" fill="none" xmlns="http://www.w3.org/2000/svg">
<path d="M32 8C18.7733 8 8 18.7733 8 32C8 45.2267 18.7733 56 32 56C45.2267 56 56 45.2267 56 32C56 18.7733 45.2267 8 32 8ZM32 53.3333C20.24 53.3333 10.6667 43.76 10.6667 32C10.6667 20.24 20.24 10.6667 32 10.6667C43.76 10.6667 53.3333 20.24 53.3333 32C53.3333 43.76 43.76 53.3333 32 53.3333ZM32 21.3333C26.1067 21.3333 21.3333 26.1067 21.3333 32C21.3333 37.8933 26.1067 42.6667 32 42.6667C37.8933 42.6667 42.6667 37.8933 42.6667 32C42.6667 26.1067 37.8933 21.3333 32 21.3333Z" fill="#232323"/>
</svg>
