<svg width="64" height="64" viewBox="0 0 64 64" fill="none" xmlns="http://www.w3.org/2000/svg">
<path d="M32 8C18.7733 8 8 18.7733 8 32C8 45.2267 18.7733 56 32 56C45.2267 56 56 45.2267 56 32C56 18.7733 45.2267 8 32 8ZM32 53.3333C20.24 53.3333 10.6667 43.76 10.6667 32C10.6667 20.24 20.24 10.6667 32 10.6667C43.76 10.6667 53.3333 20.24 53.3333 32C53.3333 43.76 43.76 53.3333 32 53.3333ZM41.3333 18.6667H22.6667C20.4533 18.6667 18.6667 20.4533 18.6667 22.6667V41.3333C18.6667 43.5467 20.4533 45.3333 22.6667 45.3333H41.3333C43.5467 45.3333 45.3333 43.5467 45.3333 41.3333V22.6667C45.3333 20.4533 43.5467 18.6667 41.3333 18.6667Z" fill="#232323"/>
</svg>
