<svg width="64" height="64" viewBox="0 0 64 64" fill="none" xmlns="http://www.w3.org/2000/svg">
<path d="M57.9467 32L43.8933 18.7467C37.2267 12.4267 26.7733 12.4267 20.1067 18.7467L6.05333 32L20.1067 45.2533C23.44 48.4 27.7067 50 32 50C36.2933 50 40.56 48.4 43.8933 45.2533L57.9467 32ZM32 45.3333C24.64 45.3333 18.6667 39.36 18.6667 32C18.6667 24.64 24.64 18.6667 32 18.6667C39.36 18.6667 45.3333 24.64 45.3333 32C45.3333 39.36 39.36 45.3333 32 45.3333ZM32 21.3333C26.1067 21.3333 21.3333 26.1067 21.3333 32C21.3333 37.8933 26.1067 42.6667 32 42.6667C37.8933 42.6667 42.6667 37.8933 42.6667 32C42.6667 26.1067 37.8933 21.3333 32 21.3333ZM54.6667 42.6667C53.92 42.6667 53.3333 43.2533 53.3333 44V53.3333H44C43.2533 53.3333 42.6667 53.92 42.6667 54.6667C42.6667 55.4133 43.2533 56 44 56H56V44C56 43.2533 55.4133 42.6667 54.6667 42.6667ZM44 10.6667H53.3333V20C53.3333 20.7467 53.92 21.3333 54.6667 21.3333C55.4133 21.3333 56 20.7467 56 20V8H44C43.2533 8 42.6667 8.58667 42.6667 9.33333C42.6667 10.08 43.2533 10.6667 44 10.6667ZM9.33333 21.3333C10.08 21.3333 10.6667 20.7467 10.6667 20V10.6667H20C20.7467 10.6667 21.3333 10.08 21.3333 9.33333C21.3333 8.58667 20.7467 8 20 8H8V20C8 20.7467 8.58667 21.3333 9.33333 21.3333ZM20 53.3333H10.6667V44C10.6667 43.2533 10.08 42.6667 9.33333 42.6667C8.58667 42.6667 8 43.2533 8 44V56H20C20.7467 56 21.3333 55.4133 21.3333 54.6667C21.3333 53.92 20.7467 53.3333 20 53.3333Z" fill="#232323"/>
</svg>
