<svg width="64" height="64" viewBox="0 0 64 64" fill="none" xmlns="http://www.w3.org/2000/svg">
<path d="M44 8C43.2533 8 42.6667 8.58667 42.6667 9.33333C42.6667 10.08 43.2533 10.6667 44 10.6667H53.3333V20C53.3333 20.7467 53.92 21.3333 54.6667 21.3333C55.4133 21.3333 56 20.7467 56 20V8H44ZM9.33333 21.3333C10.08 21.3333 10.6667 20.7467 10.6667 20V10.6667H20C20.7467 10.6667 21.3333 10.08 21.3333 9.33333C21.3333 8.58667 20.7467 8 20 8H8V20C8 20.7467 8.58667 21.3333 9.33333 21.3333ZM54.6667 42.6667C53.92 42.6667 53.3333 43.2533 53.3333 44V53.3333H44C43.2533 53.3333 42.6667 53.92 42.6667 54.6667C42.6667 55.4133 43.2533 56 44 56H56V44C56 43.2533 55.4133 42.6667 54.6667 42.6667ZM20 53.3333H10.6667V44C10.6667 43.2533 10.08 42.6667 9.33333 42.6667C8.58667 42.6667 8 43.2533 8 44V56H20C20.7467 56 21.3333 55.4133 21.3333 54.6667C21.3333 53.92 20.7467 53.3333 20 53.3333ZM38.6667 26.6667C39.0133 26.6667 39.36 26.5333 39.6 26.2667L44.9333 20.9333C45.4667 20.4 45.4667 19.5733 44.9333 19.04C44.4 18.5067 43.5733 18.5067 43.04 19.04L37.7067 24.3733C37.1733 24.9067 37.1733 25.7333 37.7067 26.2667C37.9733 26.5333 38.32 26.6667 38.64 26.6667H38.6667ZM20.9333 19.0667C20.4 18.5333 19.5733 18.5333 19.04 19.0667C18.5067 19.6 18.5067 20.4267 19.04 20.96L24.3733 26.2933C24.64 26.56 24.9867 26.6933 25.3067 26.6933C25.6267 26.6933 26 26.56 26.24 26.2933C26.7733 25.76 26.7733 24.9333 26.24 24.4L20.9067 19.0667H20.9333ZM44 45.3333C44.3467 45.3333 44.6933 45.2 44.9333 44.9333C45.4667 44.4 45.4667 43.5733 44.9333 43.04L39.6 37.7067C39.0667 37.1733 38.24 37.1733 37.7067 37.7067C37.1733 38.24 37.1733 39.0667 37.7067 39.6L43.04 44.9333C43.3067 45.2 43.6533 45.3333 43.9733 45.3333H44ZM24.4 37.7333L19.0667 43.0667C18.5333 43.6 18.5333 44.4267 19.0667 44.96C19.3333 45.2267 19.68 45.36 20 45.36C20.32 45.36 20.6933 45.2267 20.9333 44.96L26.2667 39.6267C26.8 39.0933 26.8 38.2667 26.2667 37.7333C25.7333 37.2 24.9067 37.2 24.3733 37.7333H24.4Z" fill="#232323"/>
</svg>
