<?xml version="1.0" encoding="UTF-8"?>
<svg id="Layer_2" data-name="Layer 2" xmlns="http://www.w3.org/2000/svg" viewBox="0 0 827.63 800">
  <defs>
    <style>
      .cls-1 {
        fill: #b95d6c;
      }
    </style>
  </defs>
  <g id="Main_Vector_Copy_2" data-name="Main Vector Copy 2">
    <path class="cls-1" d="M632.72,180.67c-.52-.03-1.05.05-1.52.25,14.83-9.2,21.19-39.67,22.79-48.72l51.14,11.83c.9.2,1.82-.37,2-1.28l12.96-59.58c.18-.9-.37-1.78-1.27-1.98l-59.83-13.51c-.88-.22-1.78.35-1.98,1.23l-8.23,34.87-.53,2.22-.13.63c-1.93,7.9-11.76,23.59-61.27,3.32l-15.43,61.77s31.77,15.9,53.88,11.58c1.78-.35,3.48-.98,5.07-1.87-.15.13-.28.28-.42.43-8.85,11.1-37.81,90.47-19.41,148.06,13.01,40.77,70.38,56.38,128.31,14.15,2.3-1.67,3.63-4.35,3.47-7.18-.57-10.56-4.13-38.06-25.09-65.53,0,0-15.31,26.54-52.22,27.18-37.87-1.38-43.19-29.03-43.19-29.03,0,0,3.2-21.49,36.49-21.81,31.11-.3,81.69,20.06,115.25,79.19,6.4,11.28,10.78,23.66,12.03,36.56,5.73,59.52-50.92,92.56-91.37,92.56-45.52,0-108.4-26.09-128.83-99.69,0,0-2.33-14.25-2.9-19.71-.57-5.45-3.7-6.51-10.43,1.28-4.42,5.1-75,70.31-188.05,111.05v.02s-.07.02-.12.03c-33.11,13.25-55.03,88.87-55.03,88.87,137.98-43.24,242.81-138.49,242.81-138.49,0,0,21.54,112.09,136.69,127.96,116.28.85,139.24-107.77,139.24-149.74,1.13-70.43-58.4-188.08-194.89-196.91ZM549.12,482.69l-13.3,79.93s32.86,9.06,59.75,35.96c0,0-49.85,86.13-167.75,117.65-117.32,28.83-134.03-53.9-135.6-173.47-.3-23.19-.02-47.79.2-73.23.53-64.5.73-134.41-9.61-200.81C247.39,41.26,133.56-1.81,101.42.06c-32.14,1.85-31.19,89.36-31.19,89.36,0,0,117.3-16.73,177.88,159.62,21.09,61.42,20.29,143.59,16.8,225.67-5.53.9-11.13,1.72-16.78,2.43-29.97,3.87-61.62,5.3-94.71,3.43,0,0-198.53-10.78-109.49-201.93,16.38-44.7-23.89,23.36-38.07,78.38-14.18,55.02-15.4,191.35,149.71,200.84,30.21,2.17,60.08.27,89.09-4.55,5.63-.93,11.23-1.98,16.8-3.13-5.22,125.01-2.53,233.95,81.23,247.11,149.72,23.49,258.98-112.5,281.22-165.04,11.75-71.7-45.74-140.93-74.78-149.57ZM344.01,232.21l60.82,14.05c.9.21,1.81-.36,2-1.27l12.95-59.59c.19-.89-.37-1.78-1.26-1.98l-59.83-13.53c-.89-.2-1.78.35-1.99,1.24l-13.94,59.06c-.21.9.35,1.8,1.25,2.01ZM455.04,635.16c.9.21,1.81-.36,2-1.27l12.95-59.59c.19-.89-.37-1.78-1.26-1.98l-59.83-13.53c-.89-.2-1.78.35-1.99,1.24l-13.94,59.06c-.21.9.35,1.8,1.25,2.01l60.82,14.05ZM445.97,242.71l-8.23,34.87-.53,2.22-.13.63c-1.93,7.9-11.76,23.59-61.27,3.32l-15.43,61.77s31.77,15.9,53.88,11.58c19.08-3.7,26.89-40.92,28.69-51.09l51.14,11.83c.9.2,1.82-.37,2-1.28l12.96-59.58c.18-.9-.37-1.78-1.27-1.98l-59.83-13.51c-.88-.22-1.78.35-1.98,1.23ZM486.19,162.93c6.53,38.81,18.41-95.51-68.89-156.09-12.22-6.48-15.43,33.87-15.43,33.87,0,0,69.48,15.41,84.32,122.21ZM117.47,358.1c1.78,43.35,28.7,42.56,28.7,42.56,0,0,16.72,1.7,24.35-28.11,4.26-16.63,1.69-34.25-1.58-31.67,0,0-3.98,23.81-21.28,19.99-17.27-3.81-18.21-43.55-.3-87.3,17.65-43.1-29.89,29.69-29.89,84.53Z"/>
  </g>
</svg>