<svg width="64" height="64" viewBox="0 0 64 64" fill="none" xmlns="http://www.w3.org/2000/svg">
<path d="M41.6 36.08C40.56 35.0133 40 33.4667 40 31.7067V12C40 9.78667 38.2134 8 36 8H28C25.7867 8 24 9.78667 24 12V31.7333C24 33.44 23.4134 35.0133 22.32 36.16C20.1334 38.4533 18.8267 41.4933 18.6934 44.72C18.5334 48.2133 19.8934 51.76 22.4534 54.4533C25.0134 57.12 28.5067 58.6667 32 58.6667C39.36 58.6667 45.3334 52.6933 45.3334 45.3333C45.3334 41.84 44 38.56 41.6 36.08ZM32 50.6667C29.0667 50.6667 26.6667 48.2667 26.6667 45.3333C26.6667 42.8533 28.3734 40.7733 30.6667 40.1867V22.6667C30.6667 21.92 31.2534 21.3333 32 21.3333C32.7467 21.3333 33.3334 21.92 33.3334 22.6667V40.1867C35.6267 40.7733 37.3334 42.8533 37.3334 45.3333C37.3334 48.2667 34.9334 50.6667 32 50.6667ZM12 10.6667H20C20.7467 10.6667 21.3334 10.08 21.3334 9.33333C21.3334 8.58667 20.7467 8 20 8H12C11.2534 8 10.6667 8.58667 10.6667 9.33333C10.6667 10.08 11.2534 10.6667 12 10.6667ZM12 18.6667H17.3334C18.08 18.6667 18.6667 18.08 18.6667 17.3333C18.6667 16.5867 18.08 16 17.3334 16H12C11.2534 16 10.6667 16.5867 10.6667 17.3333C10.6667 18.08 11.2534 18.6667 12 18.6667ZM12 26.6667H20C20.7467 26.6667 21.3334 26.08 21.3334 25.3333C21.3334 24.5867 20.7467 24 20 24H12C11.2534 24 10.6667 24.5867 10.6667 25.3333C10.6667 26.08 11.2534 26.6667 12 26.6667ZM17.3334 32H12C11.2534 32 10.6667 32.5867 10.6667 33.3333C10.6667 34.08 11.2534 34.6667 12 34.6667H17.3334C18.08 34.6667 18.6667 34.08 18.6667 33.3333C18.6667 32.5867 18.08 32 17.3334 32Z" fill="#232323"/>
</svg>
