<svg width="64" height="64" viewBox="0 0 64 64" fill="none" xmlns="http://www.w3.org/2000/svg">
<path d="M57.4666 29.0933L34.9066 6.53331C33.3066 4.93331 30.6933 4.93331 29.0933 6.53331L6.53331 29.0933C4.93331 30.6933 4.93331 33.3066 6.53331 34.9066L29.0933 57.4666C29.8666 58.24 30.9066 58.6666 32 58.6666C33.0933 58.6666 34.1333 58.24 34.9066 57.4666L57.4666 34.9066C58.24 34.1333 58.6666 33.0933 58.6666 32C58.6666 30.9066 58.24 29.8666 57.4666 29.0933ZM28.9333 36.9333L23.6 42.2666C23.36 42.5333 23.0133 42.6666 22.6666 42.6666C22.32 42.6666 21.9733 42.5333 21.7333 42.2666C21.2 41.76 21.2 40.9066 21.7333 40.4L27.0666 35.0666C27.5733 34.5333 28.4266 34.5333 28.9333 35.0666C29.4666 35.5733 29.4666 36.4266 28.9333 36.9333ZM28.9333 28.9333C28.6933 29.2 28.3466 29.3333 28 29.3333C27.6533 29.3333 27.3066 29.2 27.0666 28.9333L21.7333 23.6C21.2 23.0933 21.2 22.24 21.7333 21.7333C22.24 21.2 23.0933 21.2 23.6 21.7333L28.9333 27.0666C29.4666 27.5733 29.4666 28.4266 28.9333 28.9333ZM42.2666 42.2666C42.0266 42.5333 41.68 42.6666 41.3333 42.6666C40.9866 42.6666 40.64 42.5333 40.4 42.2666L35.0666 36.9333C34.5333 36.4266 34.5333 35.5733 35.0666 35.0666C35.5733 34.5333 36.4266 34.5333 36.9333 35.0666L42.2666 40.4C42.8 40.9066 42.8 41.76 42.2666 42.2666ZM42.2666 23.6L36.9333 28.9333C36.6933 29.2 36.3466 29.3333 36 29.3333C35.6533 29.3333 35.3066 29.2 35.0666 28.9333C34.5333 28.4266 34.5333 27.5733 35.0666 27.0666L40.4 21.7333C40.9066 21.2 41.76 21.2 42.2666 21.7333C42.8 22.24 42.8 23.0933 42.2666 23.6Z" fill="#232323"/>
</svg>
