<svg width="64" height="64" viewBox="0 0 64 64" fill="none" xmlns="http://www.w3.org/2000/svg">
<path d="M22.6667 8H12C9.78667 8 8 9.78667 8 12V52C8 54.2133 9.78667 56 12 56H22.6667C24.88 56 26.6667 54.2133 26.6667 52V12C26.6667 9.78667 24.88 8 22.6667 8ZM52 8H36C33.7867 8 32 9.78667 32 12V22.6667C32 24.88 33.7867 26.6667 36 26.6667H52C54.2133 26.6667 56 24.88 56 22.6667V12C56 9.78667 54.2133 8 52 8ZM44 32C37.3867 32 32 37.3867 32 44C32 50.6133 37.3867 56 44 56C50.6133 56 56 50.6133 56 44C56 37.3867 50.6133 32 44 32Z" fill="#232323"/>
</svg>
