<svg width="64" height="64" viewBox="0 0 64 64" fill="none" xmlns="http://www.w3.org/2000/svg">
<path d="M57.4667 29.0933L34.9067 6.53334C33.3067 4.93334 30.6933 4.93334 29.0933 6.53334L6.53334 29.0933C4.93334 30.6933 4.93334 33.3067 6.53334 34.9067L29.0933 57.4667C29.8667 58.24 30.9067 58.6667 32 58.6667C33.0933 58.6667 34.1333 58.24 34.9067 57.4667L57.4667 34.9067C58.24 34.1333 58.6667 33.0933 58.6667 32C58.6667 30.9067 58.24 29.8667 57.4667 29.0933ZM32 48C30.5333 48 29.3333 46.8 29.3333 45.3333C29.3333 43.8667 30.5333 42.6667 32 42.6667C33.4667 42.6667 34.6667 43.8667 34.6667 45.3333C34.6667 46.8 33.4667 48 32 48ZM40 25.3333C40 26.08 39.4133 26.6667 38.6667 26.6667C37.92 26.6667 37.3333 26.08 37.3333 25.3333V24.72C37.3333 22.8533 35.8133 21.3333 33.9467 21.3333H30.0533C28.1867 21.3333 26.6667 22.8533 26.6667 24.72C26.6667 25.6267 27.0133 26.4533 27.6533 27.0933L32.9333 32.4C33.2 32.64 33.3333 32.9867 33.3333 33.3333V36C33.3333 36.7467 32.7467 37.3333 32 37.3333C31.2533 37.3333 30.6667 36.7467 30.6667 36V33.8933L25.76 28.9867C24.64 27.84 24 26.32 24 24.72C24 21.3867 26.72 18.6667 30.0533 18.6667H33.9467C37.28 18.6667 40 21.3867 40 24.72V25.3333Z" fill="#232323"/>
</svg>
