<svg width="37" height="37" viewBox="0 0 37 37" fill="none" xmlns="http://www.w3.org/2000/svg">
<path d="M31.94 9.5C31.73 8.03 30.92 6.77 29.75 5.945L26.195 9.5H31.94ZM24.065 9.5L27.05 6.515L28.325 5.24C27.83 5.09 27.29 5 26.75 5H23.195L18.695 9.5H24.065ZM5 11V26.75C5 29.645 7.355 32 10.25 32H26.75C29.645 32 32 29.645 32 26.75V11H5ZM22.565 21.035L18.02 25.58C17.09 26.51 15.515 25.85 15.515 24.53V15.47C15.515 14.15 17.09 13.49 18.02 14.42L22.565 18.965C23.135 19.535 23.135 20.465 22.565 21.035ZM16.565 9.5L21.065 5H15.68L14.18 6.5L11.195 9.5H16.565ZM12.08 6.5L13.58 5H10.25C7.61 5 5.42 6.965 5.06 9.5H9.065L12.08 6.5Z" fill="#FDFDFD"/>
</svg>
