<svg width="64" height="64" viewBox="0 0 64 64" fill="none" xmlns="http://www.w3.org/2000/svg">
<path d="M55.6 53.7333L43.04 41.1467C46.1333 37.6267 48 33.04 48 28C48 16.96 39.04 8 28 8C16.96 8 8 16.96 8 28C8 39.04 16.96 48 28 48C33.04 48 37.6267 46.1333 41.1467 43.04L53.7333 55.6C53.9733 55.8667 54.32 56 54.6667 56C55.0133 56 55.36 55.8667 55.6 55.6C56.1333 55.0933 56.1333 54.24 55.6 53.7333ZM38.6667 29.3333H17.3333C16.5867 29.3333 16 28.7467 16 28C16 27.2533 16.5867 26.6667 17.3333 26.6667H38.6667C39.4133 26.6667 40 27.2533 40 28C40 28.7467 39.4133 29.3333 38.6667 29.3333Z" fill="#232323"/>
</svg>
