<svg width="64" height="64" viewBox="0 0 64 64" fill="none" xmlns="http://www.w3.org/2000/svg">
<path d="M55.6 53.7333L43.04 41.1733C46.1333 37.6533 48 33.0667 48 28.0267C48 16.9867 39.04 8.02667 28 8.02667C16.96 8.02667 8 16.9867 8 28.0267C8 39.0667 16.96 48.0267 28 48.0267C33.04 48.0267 37.6267 46.1333 41.1467 43.0667L53.7067 55.6267C53.9733 55.8933 54.32 56.0267 54.64 56.0267C54.96 56.0267 55.3333 55.8933 55.5733 55.6267C56.1067 55.0933 56.1067 54.2667 55.5733 53.7333H55.6ZM38.6667 29.3333H29.3333V38.6667C29.3333 39.4133 28.7467 40 28 40C27.2533 40 26.6667 39.4133 26.6667 38.6667V29.3333H17.3333C16.5867 29.3333 16 28.7467 16 28C16 27.2533 16.5867 26.6667 17.3333 26.6667H26.6667V17.3333C26.6667 16.5867 27.2533 16 28 16C28.7467 16 29.3333 16.5867 29.3333 17.3333V26.6667H38.6667C39.4133 26.6667 40 27.2533 40 28C40 28.7467 39.4133 29.3333 38.6667 29.3333Z" fill="#232323"/>
</svg>
